<svg width="16" height="10" viewBox="0 0 16 10" fill="none" xmlns="http://www.w3.org/2000/svg">
<path fill-rule="evenodd" clip-rule="evenodd" d="M15 4.37114e-08C15.5523 1.95702e-08 16 0.447715 16 1L16 4C16 4.55228 15.5523 5 15 5C14.4477 5 14 4.55228 14 4L14 3.41421L10.4142 7C9.63316 7.78105 8.36683 7.78105 7.58579 7L6 5.41421L1.70711 9.70711C1.31658 10.0976 0.683419 10.0976 0.292895 9.70711C-0.0976301 9.31658 -0.0976301 8.68342 0.292895 8.29289L4.58579 4C5.36684 3.21895 6.63317 3.21895 7.41421 4L6.70711 4.70711L7.41422 4L9 5.58579L12.5858 2L12 2C11.4477 2 11 1.55228 11 1C11 0.447715 11.4477 1.98987e-07 12 1.74846e-07L15 4.37114e-08Z" fill="#33363F"/>
</svg>
