<svg width="17" height="21" viewBox="0 0 17 21" fill="none" xmlns="http://www.w3.org/2000/svg">
<path fill-rule="evenodd" clip-rule="evenodd" d="M0.292893 5.70711C0.683418 6.09763 1.31658 6.09763 1.70711 5.70711L4 3.41421L4 20C4 20.5523 4.44772 21 5 21C5.55229 21 6 20.5523 6 20L6 3.41421L8.29289 5.70711C8.68342 6.09763 9.31658 6.09763 9.70711 5.70711C10.0976 5.31658 10.0976 4.68342 9.70711 4.29289L5.70711 0.292893C5.31658 -0.0976313 4.68342 -0.0976313 4.29289 0.292893L0.292893 4.29289C-0.0976309 4.68342 -0.0976309 5.31658 0.292893 5.70711Z" fill="#33363F"/>
<path fill-rule="evenodd" clip-rule="evenodd" d="M7.29289 15.2929C7.68342 14.9024 8.31658 14.9024 8.70711 15.2929L11 17.5858L11 1C11 0.447716 11.4477 -1.94416e-07 12 -2.18557e-07C12.5523 -2.42698e-07 13 0.447715 13 1L13 17.5858L15.2929 15.2929C15.6834 14.9024 16.3166 14.9024 16.7071 15.2929C17.0976 15.6834 17.0976 16.3166 16.7071 16.7071L12.7071 20.7071C12.3166 21.0976 11.6834 21.0976 11.2929 20.7071L7.29289 16.7071C6.90237 16.3166 6.90237 15.6834 7.29289 15.2929Z" fill="#33363F"/>
</svg>
