<svg width="993" height="889" viewBox="0 0 993 889" fill="none" xmlns="http://www.w3.org/2000/svg">
<path fill-rule="evenodd" clip-rule="evenodd" d="M537.711 81.1388C582.518 98.341 619.434 128.865 665.752 141.446C733.293 159.793 812.334 131.678 869.96 171.389C932.771 214.673 1011.77 290.859 987.486 363.159C959.424 446.716 810.654 419.108 762.061 492.652C718.276 558.92 809.808 677.148 747.485 726.398C689.691 772.07 610.739 679.639 537.711 669.944C477.216 661.912 417.475 687.494 357.814 674.664C283.138 658.604 194.483 649.083 150.474 586.668C106.727 524.625 99.5032 428.487 138.172 363.159C179.016 294.156 307.959 323.13 347.692 253.482C387.79 183.195 276.774 69.4944 336.718 15.1262C389.852 -33.0657 470.737 55.4266 537.711 81.1388Z" stroke="white"/>
<path fill-rule="evenodd" clip-rule="evenodd" d="M591.928 371.756C589.066 377.528 584.524 382.077 582.26 388.109C578.959 396.905 581.718 407.823 575.688 415.025C569.116 422.874 557.945 432.473 548.595 428.317C537.79 423.514 543.352 403.979 534.142 396.558C525.843 389.872 508.9 400.616 503.108 391.667C497.737 383.367 511.076 373.979 513.291 364.341C515.126 356.357 512.462 348.051 514.928 340.238C518.014 330.46 520.402 318.731 529.293 313.635C538.13 308.57 551.061 308.815 559.298 314.806C567.999 321.133 562.505 338.002 571.306 344.189C580.188 350.433 596.772 337.028 603.277 345.724C609.044 353.432 596.206 363.128 591.928 371.756Z" stroke="white"/>
<path d="M663.296 153.564C617.654 140.265 581.649 109.368 537.587 91.5204C471.727 64.8436 393.229 -24.2577 339.736 22.5049C279.387 75.2607 387.268 189.872 346.285 258.753C305.675 327.006 178.504 295.977 136.805 363.571C97.3273 427.566 102.739 522.904 144.939 585.14C187.391 647.748 275.015 658.783 348.677 676.04C407.528 689.827 467.154 665.575 526.918 674.625C599.064 685.55 675.577 778.516 733.639 734.335C796.251 686.691 707.748 567.948 752.31 503.115C801.765 431.163 948.594 461.199 977.899 378.96C1003.26 307.8 926.404 230.92 864.985 186.917C808.636 146.546 729.851 172.957 663.296 153.564Z" stroke="white"/>
<path d="M659.821 169.346C615.097 155.122 580.308 123.762 537.253 105.088C472.898 77.1746 397.574 -12.6493 343.655 32.2126C282.827 82.8241 386.534 198.532 344.43 265.523C302.708 331.904 177.951 298.219 135.171 363.924C94.6691 426.13 97.7148 520.349 137.863 582.785C178.251 645.595 264.461 658.596 336.743 677.4C394.492 692.424 453.921 669.925 512.684 680.296C583.621 692.815 656.894 786.405 715.259 744.2C778.197 698.688 693.713 579.371 739.252 516.46C789.791 446.641 933.974 479.819 964.875 399.364C991.614 329.746 917.619 252.023 858.064 207.117C803.426 165.919 725.037 190.087 659.821 169.346Z" stroke="white"/>
<path d="M655.174 188.462C611.622 173.134 578.354 141.254 536.577 121.6C474.132 92.2221 402.758 1.6369 348.393 44.1336C287.06 92.0767 385.569 208.965 342.157 273.576C299.14 337.6 177.473 300.734 133.436 364.061C91.7439 424.015 91.913 516.754 129.519 579.353C167.35 642.327 251.733 657.696 322.246 678.355C378.581 694.86 437.694 674.519 495.166 686.479C564.545 700.917 633.789 795.144 692.447 755.394C755.701 712.528 676.203 592.666 722.87 532.17C774.661 465.032 915.444 501.981 948.243 423.794C976.624 356.139 906.194 277.493 848.979 231.55C796.487 189.399 718.681 210.813 655.174 188.462Z" stroke="white"/>
<path d="M649.192 210.498C607.08 193.922 575.634 161.501 535.415 140.75C475.3 109.733 408.633 18.4403 353.855 58.1191C292.057 102.883 384.361 220.915 339.52 282.649C295.086 343.821 177.228 303.347 131.82 363.8C88.83 421.033 85.6703 511.883 120.263 574.551C155.063 637.594 237.17 655.675 305.501 678.44C360.093 696.628 418.727 678.823 474.596 692.599C542.039 709.229 606.49 804.014 665.374 767.179C728.873 727.457 655.298 607.195 703.18 549.609C756.32 485.7 892.901 526.942 927.833 451.529C958.06 386.275 891.889 306.71 837.491 259.654C787.584 216.483 710.599 234.67 649.192 210.498Z" stroke="white"/>
<path d="M641.717 234.947C601.324 217.021 571.998 184.082 533.627 162.162C476.273 129.399 415.038 37.5582 359.945 73.9848C297.792 115.08 382.922 234.074 336.604 292.431C290.707 350.257 177.415 305.86 130.597 362.944C86.2729 416.987 79.4048 505.485 110.541 568.064C141.864 631.017 221.212 652.078 286.924 677.134C339.425 697.151 397.368 682.225 451.298 697.992C516.401 717.027 575.326 812.181 634.307 778.7C697.909 742.595 631.143 622.205 680.255 568.021C734.76 507.888 866.285 553.814 903.507 481.699C935.714 419.299 874.475 338.921 823.367 290.749C776.478 246.553 700.617 261.087 641.717 234.947Z" stroke="white"/>
<path d="M632.617 261.213C594.234 241.886 567.311 208.502 531.081 185.392C476.928 150.849 421.807 58.7421 366.568 91.5101C304.251 128.478 381.294 248.092 333.539 302.576C286.217 356.565 178.283 308.071 130.102 361.295C84.4878 411.685 73.6201 497.316 100.895 559.574C128.333 622.205 204.404 646.424 267.042 673.876C317.085 695.809 374.073 684.059 425.706 701.931C488.037 723.507 540.759 818.723 599.634 789C663.122 756.948 603.982 636.849 654.253 586.55C710.045 530.729 835.616 581.573 875.189 513.294C909.43 454.213 853.762 373.24 806.405 324.026C762.958 278.876 688.586 289.395 632.617 261.213Z" stroke="white"/>
<path d="M621.811 288.611C585.734 267.89 561.482 234.189 527.687 209.925C477.173 173.658 428.781 81.6943 373.644 110.436C311.441 142.862 379.563 262.58 330.506 312.712C281.895 362.388 180.134 309.778 130.733 358.669C83.9634 404.956 68.9104 487.155 91.9697 548.786C115.167 610.786 187.416 638.237 246.508 668.101C293.718 691.961 349.43 683.629 398.393 703.647C457.501 727.814 503.408 822.655 561.899 797.05C624.973 769.439 574.182 650.203 625.449 604.251C682.345 553.253 801.03 609.071 842.91 545.17C879.147 489.878 829.635 408.647 786.47 358.56C746.869 312.607 674.418 318.826 621.811 288.611Z" stroke="white"/>
<path d="M609.297 316.375C575.822 294.331 554.479 260.499 523.405 235.183C476.959 197.342 435.824 106.066 381.115 130.468C319.395 157.996 377.874 277.119 327.757 322.447C278.094 367.362 183.328 310.796 132.952 354.91C85.2594 396.675 65.9579 474.835 84.5137 535.455C103.181 596.437 171.045 627.077 226.116 659.264C270.114 684.98 324.177 680.239 370.085 702.364C425.505 729.073 464.083 822.97 521.832 801.782C584.107 778.934 542.266 661.293 594.263 620.114C651.97 574.414 762.823 635.059 806.847 576.07C844.941 525.027 802.098 444.007 763.53 393.307C728.147 346.793 658.111 348.519 609.297 316.375Z" stroke="white"/>
<path d="M595.18 343.671C564.591 320.445 546.359 286.729 518.276 260.529C476.301 221.367 442.835 131.459 388.962 151.274C328.185 173.629 376.445 291.275 325.617 331.392C275.252 371.144 188.281 310.976 137.285 349.917C89.0048 386.783 65.5311 460.27 79.3784 519.418C93.3085 578.92 156.224 612.573 206.808 646.884C247.221 674.296 299.214 673.236 341.685 697.338C392.955 726.433 423.807 818.683 480.381 802.135C541.387 784.29 508.94 669.13 561.298 633.1C619.405 593.115 721.494 658.215 767.373 604.645C807.071 558.292 771.314 478.079 737.697 427.13C706.855 380.387 639.785 377.538 595.18 343.671Z" stroke="white"/>
<path d="M579.7 369.612C552.261 345.42 537.29 312.124 512.439 285.281C475.294 245.159 449.766 157.426 397.212 172.497C337.924 189.499 375.574 304.61 324.499 339.177C273.89 373.43 195.466 310.221 144.314 343.658C95.8859 375.315 68.4713 443.485 77.506 500.633C86.5948 558.124 144.014 594.472 189.675 630.586C226.154 659.438 275.616 662.052 314.28 687.904C360.955 719.111 383.838 808.887 438.729 797.108C497.921 784.406 475.119 672.757 527.362 642.179C585.342 608.243 677.782 677.191 725.092 629.5C766.029 588.234 737.649 509.551 709.265 458.814C683.223 412.265 619.712 404.889 579.7 369.612Z" stroke="white"/>
<path d="M563.27 393.29C539.209 368.423 527.586 335.906 506.164 308.733C474.144 268.118 456.644 183.479 405.961 193.753C348.782 205.344 375.66 316.706 324.912 345.474C274.624 373.981 205.411 308.504 154.673 336.201C106.637 362.424 75.6804 424.649 79.9187 479.213C84.1824 534.104 135.603 572.679 175.952 610.152C208.189 640.091 254.632 646.261 289.154 673.534C330.828 706.457 345.68 792.823 398.321 785.829C455.087 778.286 441.949 671.3 493.501 646.381C550.715 618.726 632.715 690.663 680.898 649.238C722.59 613.394 701.723 537.075 678.759 487.107C657.69 441.264 598.356 429.551 563.27 393.29Z" stroke="white"/>
<path d="M546.492 413.808C525.984 388.632 517.719 357.298 499.864 330.177C473.175 289.64 463.585 209.103 415.374 214.654C360.985 220.915 377.206 327.189 327.454 350.026C278.154 372.655 218.679 305.896 169.023 327.733C122.012 348.406 88.0887 404.109 87.6856 455.465C87.28 507.129 132.271 547.311 166.999 585.577C194.745 616.149 237.675 625.634 267.771 653.897C304.101 688.015 311.077 769.955 360.856 767.628C414.535 765.118 410.812 664.036 461.007 644.862C516.714 623.583 587.628 697.406 635.994 662.53C677.844 632.352 664.44 559.325 646.966 510.767C630.936 466.219 576.395 450.519 546.492 413.808Z" stroke="white"/>
<path d="M530.185 430.325C513.337 405.276 508.346 375.566 494.118 348.941C472.853 309.145 470.813 233.771 425.708 234.815C374.824 235.992 380.816 335.757 332.817 352.674C285.254 369.437 235.861 302.581 188.036 318.58C142.757 333.727 106.621 382.416 101.887 429.927C97.1243 477.722 135.365 518.743 164.267 557.119C187.357 587.779 226.297 600.206 251.759 628.927C282.496 663.599 281.997 740.051 328.279 742.124C378.188 744.359 383.325 650.462 431.424 636.974C484.804 622.005 544.187 696.372 591.925 668.192C633.232 643.808 627.024 575.061 614.971 528.623C603.912 486.019 554.752 466.852 530.185 430.325Z" stroke="white"/>
<path d="M515.398 442.119C502.226 417.692 500.32 390.061 489.687 364.427C473.794 326.111 478.677 256.965 437.316 253.88C390.653 250.4 387.202 342.216 341.77 353.395C296.752 364.473 257.547 298.879 212.356 309.234C169.572 319.038 132.15 360.349 123.564 403.394C114.926 446.698 146.241 487.655 169.248 525.356C187.629 555.476 222.144 570.334 242.868 598.893C267.887 633.368 260.583 703.273 302.744 709.315C348.208 715.83 361.316 630.379 406.532 622.346C456.712 613.431 504.385 686.792 550.586 665.284C590.564 646.674 591.04 583.218 584.17 539.65C577.868 499.679 534.605 477.74 515.398 442.119Z" stroke="white"/>
<path d="M503.411 448.645C493.823 425.378 494.697 400.279 487.512 376.162C476.773 340.114 487.665 278.21 450.651 271.547C408.893 264.029 397.166 346.513 355.143 352.332C313.502 358.098 284.298 295.261 242.57 300.359C203.064 305.186 165.437 338.932 153.655 376.948C141.802 415.193 166.201 455.07 183.414 491.231C197.165 520.121 226.899 536.76 242.911 564.462C262.24 597.903 249.094 660.264 286.551 669.669C326.943 679.812 346.783 603.974 388.316 600.973C434.409 597.642 470.521 668.279 514.208 653.217C552.009 640.184 558.392 582.999 556.284 543.061C554.35 506.42 517.391 482.573 503.411 448.645Z" stroke="white"/>
<path d="M495.715 449.611C489.494 428.066 492.717 405.92 488.708 383.857C482.714 350.878 498.404 297.11 466.269 287.594C430.016 276.858 411.578 348.774 373.788 349.826C336.342 350.868 316.608 292.358 279.149 292.8C243.686 293.218 207.064 319.435 192.917 351.958C178.686 384.676 196.405 422.38 208.121 456.09C217.482 483.022 242.195 500.663 253.673 526.764C267.53 558.271 249.799 612.225 282.058 624.213C316.845 637.14 341.821 571.903 378.901 573.3C420.054 574.849 445.145 640.942 485.311 631.866C520.065 624.012 531.301 573.983 533.332 538.402C535.195 505.759 504.786 481.028 495.715 449.611Z" stroke="white"/>
<path d="M493.983 445.056C490.77 425.789 495.788 406.954 494.54 387.461C492.675 358.325 511.663 313.385 484.819 301.915C454.535 288.976 431.342 349.34 398.541 346.444C366.039 343.574 354.856 290.965 322.404 287.575C291.68 284.365 257.356 303.36 241.842 330.074C226.235 356.948 237.769 391.353 244.512 421.699C249.899 445.943 269.503 463.695 276.806 487.433C285.622 516.088 264.85 560.983 291.553 574.603C320.348 589.291 348.525 535.365 380.465 540.307C415.913 545.792 430.967 605.502 466.631 601.694C497.49 598.399 512.248 556.246 517.588 525.666C522.487 497.611 498.668 473.152 493.983 445.056Z" stroke="white"/>
<path d="M500.005 435.43C499.292 418.956 505.431 403.69 506.387 387.229C507.816 362.625 528.34 326.921 507.026 314.554C482.981 300.602 457.351 348.797 430.166 343.002C403.229 337.259 399.262 292.03 372.42 285.856C347.007 280.011 316.299 292.401 300.557 313.191C284.721 334.105 290.852 364.117 293.385 390.235C295.409 411.102 310.012 427.99 313.694 448.629C318.138 473.545 296.124 509.027 317.098 523.182C339.716 538.446 368.861 496.156 395.114 503.578C424.251 511.815 430.733 563.391 461.005 563.864C487.198 564.273 503.892 530.469 511.506 505.396C518.491 482.392 501.046 459.451 500.005 435.43Z" stroke="white"/>
<path d="M515.605 421.659C516.73 408.414 523.21 396.84 525.668 383.777C529.344 364.252 549.427 337.819 533.661 325.736C515.873 312.105 490.421 348 469.283 340.567C448.339 333.202 449.823 296.631 428.998 288.931C409.283 281.641 383.456 288.385 368.731 303.387C353.918 318.478 355.73 343.105 355.067 364.249C354.537 381.141 364.474 396.147 365.292 413.028C366.28 433.407 345.028 459.51 360.34 472.987C376.851 487.521 404.505 456.709 424.731 465.346C447.177 474.932 447.051 516.837 471.204 520.332C492.103 523.356 508.929 498.047 517.597 478.784C525.55 461.11 513.964 440.972 515.605 421.659Z" stroke="white"/>
<path d="M542.52 405.208C544.68 395.501 550.641 387.569 553.77 378.13C558.448 364.023 575.979 346.436 565.501 335.901C553.68 324.015 531.221 348.08 516.297 340.454C501.508 332.898 506.267 305.934 491.601 298.142C477.716 290.764 457.897 293.18 445.481 302.828C432.99 312.533 431.87 330.973 429.263 346.581C427.18 359.052 433.045 371.171 431.963 383.768C430.656 398.975 412.291 416.2 422.293 427.724C433.078 440.15 456.66 420.075 470.788 428.502C486.468 437.855 482.182 468.909 499.736 473.917C514.925 478.25 529.93 461.171 538.282 447.757C545.945 435.451 539.372 419.362 542.52 405.208Z" stroke="white"/>
</svg>
